<mxfile host="app.diagrams.net" modified="2024-07-17T16:48:31.895Z" agent="Mozilla/5.0 (Windows NT 10.0; Win64; x64) AppleWebKit/537.36 (KHTML, like Gecko) Chrome/126.0.0.0 Safari/537.36" etag="9hQgRNasOeCgimXnN8lh" version="24.7.0" type="github">
  <diagram name="Page-1" id="jo2bqbZUf1iIaIg-FjMs">
    <mxGraphModel dx="2049" dy="1040" grid="1" gridSize="10" guides="1" tooltips="1" connect="1" arrows="1" fold="1" page="1" pageScale="1" pageWidth="850" pageHeight="1100" math="0" shadow="0">
      <root>
        <mxCell id="0" />
        <mxCell id="1" parent="0" />
        <mxCell id="98ZaGtcyYQJ2RkKQWjMi-113" style="edgeStyle=orthogonalEdgeStyle;rounded=1;orthogonalLoop=1;jettySize=auto;html=1;entryX=0.5;entryY=1;entryDx=0;entryDy=0;strokeColor=#23445D;fontColor=default;labelBackgroundColor=none;" parent="1" source="98ZaGtcyYQJ2RkKQWjMi-2" target="98ZaGtcyYQJ2RkKQWjMi-107" edge="1">
          <mxGeometry relative="1" as="geometry" />
        </mxCell>
        <mxCell id="98ZaGtcyYQJ2RkKQWjMi-114" style="edgeStyle=orthogonalEdgeStyle;rounded=1;orthogonalLoop=1;jettySize=auto;html=1;strokeColor=#23445D;fontColor=default;labelBackgroundColor=none;" parent="1" source="98ZaGtcyYQJ2RkKQWjMi-2" target="98ZaGtcyYQJ2RkKQWjMi-109" edge="1">
          <mxGeometry relative="1" as="geometry" />
        </mxCell>
        <mxCell id="98ZaGtcyYQJ2RkKQWjMi-115" style="edgeStyle=orthogonalEdgeStyle;rounded=1;orthogonalLoop=1;jettySize=auto;html=1;exitX=1;exitY=0.75;exitDx=0;exitDy=0;strokeColor=#23445D;fontColor=default;entryX=0.568;entryY=1.056;entryDx=0;entryDy=0;entryPerimeter=0;labelBackgroundColor=none;" parent="1" source="98ZaGtcyYQJ2RkKQWjMi-2" target="98ZaGtcyYQJ2RkKQWjMi-111" edge="1">
          <mxGeometry relative="1" as="geometry">
            <mxPoint x="1080" y="246.52380952380952" as="targetPoint" />
            <Array as="points">
              <mxPoint x="1078" y="246" />
            </Array>
          </mxGeometry>
        </mxCell>
        <mxCell id="98ZaGtcyYQJ2RkKQWjMi-116" style="edgeStyle=orthogonalEdgeStyle;rounded=1;orthogonalLoop=1;jettySize=auto;html=1;entryX=1;entryY=1;entryDx=0;entryDy=0;strokeColor=#23445D;fontColor=default;labelBackgroundColor=none;" parent="1" source="98ZaGtcyYQJ2RkKQWjMi-2" edge="1">
          <mxGeometry relative="1" as="geometry">
            <mxPoint x="782" y="264.997619047619" as="sourcePoint" />
            <mxPoint x="686.1857720015983" y="229.15963869295314" as="targetPoint" />
            <Array as="points">
              <mxPoint x="686" y="250" />
            </Array>
          </mxGeometry>
        </mxCell>
        <mxCell id="98ZaGtcyYQJ2RkKQWjMi-117" style="edgeStyle=orthogonalEdgeStyle;rounded=1;orthogonalLoop=1;jettySize=auto;html=1;exitX=0;exitY=0;exitDx=0;exitDy=0;entryX=1;entryY=0.5;entryDx=0;entryDy=0;strokeColor=#23445D;fontColor=default;labelBackgroundColor=none;" parent="1" source="98ZaGtcyYQJ2RkKQWjMi-2" target="98ZaGtcyYQJ2RkKQWjMi-105" edge="1">
          <mxGeometry relative="1" as="geometry" />
        </mxCell>
        <mxCell id="98ZaGtcyYQJ2RkKQWjMi-2" value="USER" style="shape=table;startSize=75;container=1;collapsible=0;childLayout=tableLayout;fixedRows=1;rowLines=1;fontStyle=1;align=center;resizeLast=1;labelBackgroundColor=none;fillColor=#182E3E;strokeColor=#FFFFFF;fontColor=#FFFFFF;rounded=1;" parent="1" vertex="1">
          <mxGeometry x="821" y="190" width="100" height="75" as="geometry" />
        </mxCell>
        <mxCell id="rwyffnUm-1UJarJ4zW3v-42" style="edgeStyle=orthogonalEdgeStyle;rounded=1;orthogonalLoop=1;jettySize=auto;html=1;entryX=0.5;entryY=1;entryDx=0;entryDy=0;" edge="1" parent="1" source="98ZaGtcyYQJ2RkKQWjMi-3" target="rwyffnUm-1UJarJ4zW3v-41">
          <mxGeometry relative="1" as="geometry" />
        </mxCell>
        <mxCell id="rwyffnUm-1UJarJ4zW3v-44" style="edgeStyle=orthogonalEdgeStyle;rounded=1;orthogonalLoop=1;jettySize=auto;html=1;entryX=0.5;entryY=1;entryDx=0;entryDy=0;exitX=0.75;exitY=0;exitDx=0;exitDy=0;" edge="1" parent="1" source="98ZaGtcyYQJ2RkKQWjMi-3" target="rwyffnUm-1UJarJ4zW3v-43">
          <mxGeometry relative="1" as="geometry" />
        </mxCell>
        <mxCell id="rwyffnUm-1UJarJ4zW3v-46" style="edgeStyle=entityRelationEdgeStyle;rounded=1;orthogonalLoop=1;jettySize=auto;html=1;exitX=1;exitY=0.25;exitDx=0;exitDy=0;entryX=0;entryY=0.5;entryDx=0;entryDy=0;" edge="1" parent="1" source="98ZaGtcyYQJ2RkKQWjMi-3" target="rwyffnUm-1UJarJ4zW3v-45">
          <mxGeometry relative="1" as="geometry" />
        </mxCell>
        <mxCell id="rwyffnUm-1UJarJ4zW3v-48" style="edgeStyle=entityRelationEdgeStyle;rounded=1;orthogonalLoop=1;jettySize=auto;html=1;entryX=0;entryY=0.5;entryDx=0;entryDy=0;" edge="1" parent="1" source="98ZaGtcyYQJ2RkKQWjMi-3" target="rwyffnUm-1UJarJ4zW3v-47">
          <mxGeometry relative="1" as="geometry" />
        </mxCell>
        <mxCell id="98ZaGtcyYQJ2RkKQWjMi-3" value="COMPANY" style="shape=table;startSize=75;container=1;collapsible=0;childLayout=tableLayout;fixedRows=1;rowLines=1;fontStyle=1;align=center;resizeLast=1;labelBackgroundColor=none;fillColor=#182E3E;strokeColor=#FFFFFF;fontColor=#FFFFFF;rounded=1;" parent="1" vertex="1">
          <mxGeometry x="1230" y="330" width="90" height="75" as="geometry" />
        </mxCell>
        <mxCell id="rwyffnUm-1UJarJ4zW3v-51" style="edgeStyle=orthogonalEdgeStyle;rounded=1;orthogonalLoop=1;jettySize=auto;html=1;exitX=0.25;exitY=0;exitDx=0;exitDy=0;entryX=0.5;entryY=1;entryDx=0;entryDy=0;curved=1;" edge="1" parent="1" source="98ZaGtcyYQJ2RkKQWjMi-4" target="rwyffnUm-1UJarJ4zW3v-50">
          <mxGeometry relative="1" as="geometry" />
        </mxCell>
        <mxCell id="rwyffnUm-1UJarJ4zW3v-54" style="edgeStyle=entityRelationEdgeStyle;rounded=1;orthogonalLoop=1;jettySize=auto;html=1;exitX=0;exitY=0.25;exitDx=0;exitDy=0;entryX=1;entryY=0.5;entryDx=0;entryDy=0;" edge="1" parent="1" source="98ZaGtcyYQJ2RkKQWjMi-4" target="rwyffnUm-1UJarJ4zW3v-52">
          <mxGeometry relative="1" as="geometry" />
        </mxCell>
        <mxCell id="rwyffnUm-1UJarJ4zW3v-56" style="edgeStyle=orthogonalEdgeStyle;rounded=1;orthogonalLoop=1;jettySize=auto;html=1;exitX=0.75;exitY=0;exitDx=0;exitDy=0;curved=1;entryX=0.5;entryY=1;entryDx=0;entryDy=0;" edge="1" parent="1" source="98ZaGtcyYQJ2RkKQWjMi-4" target="rwyffnUm-1UJarJ4zW3v-55">
          <mxGeometry relative="1" as="geometry">
            <mxPoint x="830" y="490" as="targetPoint" />
          </mxGeometry>
        </mxCell>
        <mxCell id="rwyffnUm-1UJarJ4zW3v-58" style="edgeStyle=entityRelationEdgeStyle;rounded=1;orthogonalLoop=1;jettySize=auto;html=1;exitX=1;exitY=0;exitDx=0;exitDy=0;entryX=0;entryY=0.5;entryDx=0;entryDy=0;" edge="1" parent="1" source="98ZaGtcyYQJ2RkKQWjMi-4" target="rwyffnUm-1UJarJ4zW3v-57">
          <mxGeometry relative="1" as="geometry" />
        </mxCell>
        <mxCell id="rwyffnUm-1UJarJ4zW3v-60" style="edgeStyle=entityRelationEdgeStyle;rounded=1;orthogonalLoop=1;jettySize=auto;html=1;exitX=1;exitY=0.25;exitDx=0;exitDy=0;entryX=0;entryY=0.5;entryDx=0;entryDy=0;" edge="1" parent="1" source="98ZaGtcyYQJ2RkKQWjMi-4" target="rwyffnUm-1UJarJ4zW3v-59">
          <mxGeometry relative="1" as="geometry" />
        </mxCell>
        <mxCell id="98ZaGtcyYQJ2RkKQWjMi-4" value="CLIENT" style="shape=table;startSize=75;container=1;collapsible=0;childLayout=tableLayout;fixedRows=1;rowLines=1;fontStyle=1;align=center;resizeLast=1;labelBackgroundColor=none;fillColor=#182E3E;strokeColor=#FFFFFF;fontColor=#FFFFFF;rounded=1;" parent="1" vertex="1">
          <mxGeometry x="721" y="540" width="100" height="75" as="geometry" />
        </mxCell>
        <mxCell id="rwyffnUm-1UJarJ4zW3v-62" style="rounded=1;orthogonalLoop=1;jettySize=auto;html=1;exitX=0.25;exitY=0;exitDx=0;exitDy=0;entryX=0.5;entryY=1;entryDx=0;entryDy=0;edgeStyle=entityRelationEdgeStyle;" edge="1" parent="1" source="98ZaGtcyYQJ2RkKQWjMi-5" target="rwyffnUm-1UJarJ4zW3v-61">
          <mxGeometry relative="1" as="geometry" />
        </mxCell>
        <mxCell id="rwyffnUm-1UJarJ4zW3v-64" style="edgeStyle=none;rounded=1;orthogonalLoop=1;jettySize=auto;html=1;exitX=0.5;exitY=0;exitDx=0;exitDy=0;entryX=0.5;entryY=1;entryDx=0;entryDy=0;" edge="1" parent="1" source="98ZaGtcyYQJ2RkKQWjMi-5" target="rwyffnUm-1UJarJ4zW3v-63">
          <mxGeometry relative="1" as="geometry" />
        </mxCell>
        <mxCell id="rwyffnUm-1UJarJ4zW3v-66" style="edgeStyle=none;rounded=1;orthogonalLoop=1;jettySize=auto;html=1;exitX=0.75;exitY=0;exitDx=0;exitDy=0;entryX=0.5;entryY=1;entryDx=0;entryDy=0;" edge="1" parent="1" source="98ZaGtcyYQJ2RkKQWjMi-5" target="rwyffnUm-1UJarJ4zW3v-65">
          <mxGeometry relative="1" as="geometry" />
        </mxCell>
        <mxCell id="rwyffnUm-1UJarJ4zW3v-69" style="edgeStyle=entityRelationEdgeStyle;rounded=1;orthogonalLoop=1;jettySize=auto;html=1;exitX=1;exitY=0.25;exitDx=0;exitDy=0;entryX=0;entryY=0.5;entryDx=0;entryDy=0;" edge="1" parent="1" source="98ZaGtcyYQJ2RkKQWjMi-5" target="rwyffnUm-1UJarJ4zW3v-68">
          <mxGeometry relative="1" as="geometry" />
        </mxCell>
        <mxCell id="rwyffnUm-1UJarJ4zW3v-71" style="edgeStyle=entityRelationEdgeStyle;rounded=1;orthogonalLoop=1;jettySize=auto;html=1;exitX=1;exitY=0.75;exitDx=0;exitDy=0;entryX=0;entryY=0.5;entryDx=0;entryDy=0;" edge="1" parent="1" source="98ZaGtcyYQJ2RkKQWjMi-5" target="rwyffnUm-1UJarJ4zW3v-70">
          <mxGeometry relative="1" as="geometry" />
        </mxCell>
        <mxCell id="rwyffnUm-1UJarJ4zW3v-74" style="edgeStyle=orthogonalEdgeStyle;rounded=1;orthogonalLoop=1;jettySize=auto;html=1;entryX=0;entryY=0.5;entryDx=0;entryDy=0;curved=1;exitX=0.75;exitY=1;exitDx=0;exitDy=0;" edge="1" parent="1" source="98ZaGtcyYQJ2RkKQWjMi-5" target="rwyffnUm-1UJarJ4zW3v-72">
          <mxGeometry relative="1" as="geometry" />
        </mxCell>
        <mxCell id="98ZaGtcyYQJ2RkKQWjMi-5" value="SERVICEAD" style="shape=table;startSize=75;container=1;collapsible=0;childLayout=tableLayout;fixedRows=1;rowLines=1;fontStyle=1;align=center;resizeLast=1;labelBackgroundColor=none;fillColor=#182E3E;strokeColor=#FFFFFF;fontColor=#FFFFFF;rounded=1;" parent="1" vertex="1">
          <mxGeometry x="1070" y="690" width="100" height="75" as="geometry" />
        </mxCell>
        <mxCell id="rwyffnUm-1UJarJ4zW3v-77" style="edgeStyle=orthogonalEdgeStyle;rounded=1;orthogonalLoop=1;jettySize=auto;html=1;exitX=0.25;exitY=0;exitDx=0;exitDy=0;entryX=1;entryY=0.5;entryDx=0;entryDy=0;curved=1;" edge="1" parent="1" source="98ZaGtcyYQJ2RkKQWjMi-6" target="rwyffnUm-1UJarJ4zW3v-76">
          <mxGeometry relative="1" as="geometry" />
        </mxCell>
        <mxCell id="rwyffnUm-1UJarJ4zW3v-79" style="edgeStyle=none;rounded=1;orthogonalLoop=1;jettySize=auto;html=1;exitX=0;exitY=0.25;exitDx=0;exitDy=0;entryX=1;entryY=0.5;entryDx=0;entryDy=0;" edge="1" parent="1" source="98ZaGtcyYQJ2RkKQWjMi-6" target="rwyffnUm-1UJarJ4zW3v-78">
          <mxGeometry relative="1" as="geometry" />
        </mxCell>
        <mxCell id="rwyffnUm-1UJarJ4zW3v-81" style="edgeStyle=none;rounded=1;orthogonalLoop=1;jettySize=auto;html=1;entryX=1;entryY=0.5;entryDx=0;entryDy=0;" edge="1" parent="1" source="98ZaGtcyYQJ2RkKQWjMi-6" target="rwyffnUm-1UJarJ4zW3v-80">
          <mxGeometry relative="1" as="geometry" />
        </mxCell>
        <mxCell id="rwyffnUm-1UJarJ4zW3v-83" style="edgeStyle=orthogonalEdgeStyle;rounded=1;orthogonalLoop=1;jettySize=auto;html=1;entryX=1;entryY=0.5;entryDx=0;entryDy=0;curved=1;exitX=0.25;exitY=1;exitDx=0;exitDy=0;" edge="1" parent="1" source="98ZaGtcyYQJ2RkKQWjMi-6" target="rwyffnUm-1UJarJ4zW3v-82">
          <mxGeometry relative="1" as="geometry" />
        </mxCell>
        <mxCell id="98ZaGtcyYQJ2RkKQWjMi-6" value="SERVICEBOOKING" style="shape=table;startSize=75;container=1;collapsible=0;childLayout=tableLayout;fixedRows=1;rowLines=1;fontStyle=1;align=center;resizeLast=1;labelBackgroundColor=none;fillColor=#182E3E;strokeColor=#FFFFFF;fontColor=#FFFFFF;rounded=1;" parent="1" vertex="1">
          <mxGeometry x="580" y="850" width="122" height="75" as="geometry" />
        </mxCell>
        <mxCell id="rwyffnUm-1UJarJ4zW3v-89" style="edgeStyle=entityRelationEdgeStyle;rounded=1;orthogonalLoop=1;jettySize=auto;html=1;exitX=0;exitY=0.5;exitDx=0;exitDy=0;entryX=1;entryY=1;entryDx=0;entryDy=0;" edge="1" parent="1" source="98ZaGtcyYQJ2RkKQWjMi-7" target="rwyffnUm-1UJarJ4zW3v-88">
          <mxGeometry relative="1" as="geometry" />
        </mxCell>
        <mxCell id="rwyffnUm-1UJarJ4zW3v-92" style="edgeStyle=orthogonalEdgeStyle;rounded=1;orthogonalLoop=1;jettySize=auto;html=1;exitX=0;exitY=0.75;exitDx=0;exitDy=0;entryX=0.5;entryY=0;entryDx=0;entryDy=0;curved=1;" edge="1" parent="1" source="98ZaGtcyYQJ2RkKQWjMi-7" target="rwyffnUm-1UJarJ4zW3v-91">
          <mxGeometry relative="1" as="geometry" />
        </mxCell>
        <mxCell id="rwyffnUm-1UJarJ4zW3v-95" style="edgeStyle=none;rounded=1;orthogonalLoop=1;jettySize=auto;html=1;entryX=0.5;entryY=0;entryDx=0;entryDy=0;exitX=0.25;exitY=1;exitDx=0;exitDy=0;" edge="1" parent="1" source="98ZaGtcyYQJ2RkKQWjMi-7" target="rwyffnUm-1UJarJ4zW3v-94">
          <mxGeometry relative="1" as="geometry" />
        </mxCell>
        <mxCell id="rwyffnUm-1UJarJ4zW3v-97" style="edgeStyle=none;rounded=1;orthogonalLoop=1;jettySize=auto;html=1;exitX=0.5;exitY=1;exitDx=0;exitDy=0;entryX=0.5;entryY=0;entryDx=0;entryDy=0;" edge="1" parent="1" source="98ZaGtcyYQJ2RkKQWjMi-7" target="rwyffnUm-1UJarJ4zW3v-96">
          <mxGeometry relative="1" as="geometry" />
        </mxCell>
        <mxCell id="rwyffnUm-1UJarJ4zW3v-99" style="edgeStyle=orthogonalEdgeStyle;rounded=1;orthogonalLoop=1;jettySize=auto;html=1;exitX=1;exitY=0.75;exitDx=0;exitDy=0;entryX=0.5;entryY=0;entryDx=0;entryDy=0;curved=1;" edge="1" parent="1" source="98ZaGtcyYQJ2RkKQWjMi-7" target="rwyffnUm-1UJarJ4zW3v-98">
          <mxGeometry relative="1" as="geometry" />
        </mxCell>
        <mxCell id="rwyffnUm-1UJarJ4zW3v-101" style="edgeStyle=none;rounded=1;orthogonalLoop=1;jettySize=auto;html=1;entryX=0;entryY=0.5;entryDx=0;entryDy=0;exitX=1;exitY=0.25;exitDx=0;exitDy=0;" edge="1" parent="1" source="98ZaGtcyYQJ2RkKQWjMi-7" target="rwyffnUm-1UJarJ4zW3v-100">
          <mxGeometry relative="1" as="geometry" />
        </mxCell>
        <mxCell id="98ZaGtcyYQJ2RkKQWjMi-7" value="RATING" style="shape=table;startSize=75;container=1;collapsible=0;childLayout=tableLayout;fixedRows=1;rowLines=1;fontStyle=1;align=center;resizeLast=1;labelBackgroundColor=none;fillColor=#182E3E;strokeColor=#FFFFFF;fontColor=#FFFFFF;rounded=1;" parent="1" vertex="1">
          <mxGeometry x="980" y="980" width="100" height="75" as="geometry" />
        </mxCell>
        <mxCell id="rwyffnUm-1UJarJ4zW3v-108" style="edgeStyle=orthogonalEdgeStyle;rounded=1;orthogonalLoop=1;jettySize=auto;html=1;exitX=0;exitY=0.25;exitDx=0;exitDy=0;entryX=1;entryY=0.5;entryDx=0;entryDy=0;curved=1;" edge="1" parent="1" source="98ZaGtcyYQJ2RkKQWjMi-8" target="rwyffnUm-1UJarJ4zW3v-102">
          <mxGeometry relative="1" as="geometry" />
        </mxCell>
        <mxCell id="rwyffnUm-1UJarJ4zW3v-109" style="edgeStyle=orthogonalEdgeStyle;rounded=1;orthogonalLoop=1;jettySize=auto;html=1;entryX=1;entryY=0.5;entryDx=0;entryDy=0;curved=1;" edge="1" parent="1" source="98ZaGtcyYQJ2RkKQWjMi-8" target="rwyffnUm-1UJarJ4zW3v-105">
          <mxGeometry relative="1" as="geometry" />
        </mxCell>
        <mxCell id="rwyffnUm-1UJarJ4zW3v-110" style="edgeStyle=none;rounded=1;orthogonalLoop=1;jettySize=auto;html=1;entryX=0.5;entryY=0;entryDx=0;entryDy=0;" edge="1" parent="1" source="98ZaGtcyYQJ2RkKQWjMi-8" target="rwyffnUm-1UJarJ4zW3v-104">
          <mxGeometry relative="1" as="geometry" />
        </mxCell>
        <mxCell id="rwyffnUm-1UJarJ4zW3v-111" style="edgeStyle=none;rounded=1;orthogonalLoop=1;jettySize=auto;html=1;entryX=0.5;entryY=0;entryDx=0;entryDy=0;" edge="1" parent="1" source="98ZaGtcyYQJ2RkKQWjMi-8" target="rwyffnUm-1UJarJ4zW3v-107">
          <mxGeometry relative="1" as="geometry" />
        </mxCell>
        <mxCell id="rwyffnUm-1UJarJ4zW3v-112" style="edgeStyle=orthogonalEdgeStyle;rounded=1;orthogonalLoop=1;jettySize=auto;html=1;exitX=1;exitY=0.5;exitDx=0;exitDy=0;entryX=0;entryY=0.5;entryDx=0;entryDy=0;curved=1;" edge="1" parent="1" source="98ZaGtcyYQJ2RkKQWjMi-8" target="rwyffnUm-1UJarJ4zW3v-106">
          <mxGeometry relative="1" as="geometry" />
        </mxCell>
        <mxCell id="98ZaGtcyYQJ2RkKQWjMi-8" value="PAYMENT" style="shape=table;startSize=75;container=1;collapsible=0;childLayout=tableLayout;fixedRows=1;rowLines=1;fontStyle=1;align=center;resizeLast=1;labelBackgroundColor=none;fillColor=#182E3E;strokeColor=#FFFFFF;fontColor=#FFFFFF;rounded=1;" parent="1" vertex="1">
          <mxGeometry x="570" y="1200" width="100" height="75" as="geometry" />
        </mxCell>
        <mxCell id="98ZaGtcyYQJ2RkKQWjMi-91" value="UserID" style="ellipse;whiteSpace=wrap;html=1;align=center;strokeColor=#005700;fontColor=#ffffff;fillColor=#008a00;labelBackgroundColor=none;rounded=1;" parent="1" vertex="1">
          <mxGeometry x="640" y="190" width="100" height="40" as="geometry" />
        </mxCell>
        <mxCell id="98ZaGtcyYQJ2RkKQWjMi-105" value="UserName" style="ellipse;whiteSpace=wrap;html=1;align=center;strokeColor=#005700;fontColor=#ffffff;fillColor=#008a00;labelBackgroundColor=none;rounded=1;" parent="1" vertex="1">
          <mxGeometry x="640" y="100" width="100" height="40" as="geometry" />
        </mxCell>
        <mxCell id="98ZaGtcyYQJ2RkKQWjMi-107" value="password" style="ellipse;whiteSpace=wrap;html=1;align=center;strokeColor=#005700;fontColor=#ffffff;fillColor=#008a00;labelBackgroundColor=none;rounded=1;" parent="1" vertex="1">
          <mxGeometry x="821" y="60" width="100" height="40" as="geometry" />
        </mxCell>
        <mxCell id="98ZaGtcyYQJ2RkKQWjMi-109" value="Email" style="ellipse;whiteSpace=wrap;html=1;align=center;strokeColor=#005700;fontColor=#ffffff;fillColor=#008a00;labelBackgroundColor=none;rounded=1;" parent="1" vertex="1">
          <mxGeometry x="940" y="100" width="100" height="40" as="geometry" />
        </mxCell>
        <mxCell id="98ZaGtcyYQJ2RkKQWjMi-111" value="Role" style="ellipse;whiteSpace=wrap;html=1;align=center;strokeColor=#005700;fontColor=#ffffff;fillColor=#008a00;labelBackgroundColor=none;rounded=1;" parent="1" vertex="1">
          <mxGeometry x="1021" y="190" width="100" height="40" as="geometry" />
        </mxCell>
        <mxCell id="rwyffnUm-1UJarJ4zW3v-4" value="has" style="shape=rhombus;perimeter=rhombusPerimeter;whiteSpace=wrap;html=1;align=center;strokeColor=#6F0000;fontColor=#ffffff;fillColor=#a20025;labelBackgroundColor=none;rounded=1;" vertex="1" parent="1">
          <mxGeometry x="920" y="330" width="120" height="60" as="geometry" />
        </mxCell>
        <mxCell id="rwyffnUm-1UJarJ4zW3v-5" value="" style="edgeStyle=orthogonalEdgeStyle;fontSize=12;html=1;endArrow=ERmandOne;rounded=1;strokeColor=#23445D;fontColor=default;entryX=0.75;entryY=1;entryDx=0;entryDy=0;exitX=0.5;exitY=0;exitDx=0;exitDy=0;curved=1;labelBackgroundColor=none;" edge="1" parent="1" source="rwyffnUm-1UJarJ4zW3v-4" target="98ZaGtcyYQJ2RkKQWjMi-2">
          <mxGeometry width="100" height="100" relative="1" as="geometry">
            <mxPoint x="931" y="480" as="sourcePoint" />
            <mxPoint x="971" y="280" as="targetPoint" />
          </mxGeometry>
        </mxCell>
        <mxCell id="rwyffnUm-1UJarJ4zW3v-7" value="" style="edgeStyle=entityRelationEdgeStyle;fontSize=12;html=1;endArrow=ERmany;rounded=1;strokeColor=#23445D;fontColor=default;entryX=0;entryY=0.5;entryDx=0;entryDy=0;exitX=1;exitY=0.5;exitDx=0;exitDy=0;labelBackgroundColor=none;" edge="1" parent="1" source="rwyffnUm-1UJarJ4zW3v-4" target="98ZaGtcyYQJ2RkKQWjMi-3">
          <mxGeometry width="100" height="100" relative="1" as="geometry">
            <mxPoint x="1071" y="350" as="sourcePoint" />
            <mxPoint x="1148.25" y="408.35000000000014" as="targetPoint" />
          </mxGeometry>
        </mxCell>
        <mxCell id="rwyffnUm-1UJarJ4zW3v-10" value="" style="edgeStyle=orthogonalEdgeStyle;fontSize=12;html=1;endArrow=ERmandOne;rounded=1;strokeColor=#23445D;fontColor=default;entryX=0.5;entryY=1;entryDx=0;entryDy=0;curved=1;labelBackgroundColor=none;" edge="1" parent="1" source="rwyffnUm-1UJarJ4zW3v-8" target="98ZaGtcyYQJ2RkKQWjMi-3">
          <mxGeometry width="100" height="100" relative="1" as="geometry">
            <mxPoint x="1275" y="610" as="sourcePoint" />
            <mxPoint x="1340" y="500" as="targetPoint" />
          </mxGeometry>
        </mxCell>
        <mxCell id="rwyffnUm-1UJarJ4zW3v-11" value="" style="edgeStyle=orthogonalEdgeStyle;fontSize=12;html=1;endArrow=ERmany;rounded=1;strokeColor=#23445D;fontColor=default;entryX=1;entryY=0.5;entryDx=0;entryDy=0;exitX=0.5;exitY=1;exitDx=0;exitDy=0;curved=1;labelBackgroundColor=none;" edge="1" parent="1" source="rwyffnUm-1UJarJ4zW3v-8" target="98ZaGtcyYQJ2RkKQWjMi-5">
          <mxGeometry width="100" height="100" relative="1" as="geometry">
            <mxPoint x="1216" y="640" as="sourcePoint" />
            <mxPoint x="1121" y="690" as="targetPoint" />
          </mxGeometry>
        </mxCell>
        <mxCell id="rwyffnUm-1UJarJ4zW3v-14" style="edgeStyle=orthogonalEdgeStyle;rounded=1;orthogonalLoop=1;jettySize=auto;html=1;strokeColor=#23445D;fontColor=default;endArrow=ERmandOne;endFill=0;labelBackgroundColor=none;" edge="1" parent="1" source="rwyffnUm-1UJarJ4zW3v-13">
          <mxGeometry relative="1" as="geometry">
            <mxPoint x="850" y="270" as="targetPoint" />
          </mxGeometry>
        </mxCell>
        <mxCell id="rwyffnUm-1UJarJ4zW3v-15" style="edgeStyle=orthogonalEdgeStyle;rounded=1;orthogonalLoop=1;jettySize=auto;html=1;entryX=0.5;entryY=0;entryDx=0;entryDy=0;strokeColor=#23445D;fontColor=default;endArrow=ERoneToMany;endFill=0;labelBackgroundColor=none;" edge="1" parent="1" source="rwyffnUm-1UJarJ4zW3v-13" target="98ZaGtcyYQJ2RkKQWjMi-4">
          <mxGeometry relative="1" as="geometry" />
        </mxCell>
        <mxCell id="rwyffnUm-1UJarJ4zW3v-13" value="has" style="shape=rhombus;perimeter=rhombusPerimeter;whiteSpace=wrap;html=1;align=center;labelBackgroundColor=none;rounded=1;fillColor=#a20025;strokeColor=#6F0000;fontColor=#ffffff;" vertex="1" parent="1">
          <mxGeometry x="690" y="350" width="120" height="60" as="geometry" />
        </mxCell>
        <mxCell id="rwyffnUm-1UJarJ4zW3v-19" style="edgeStyle=orthogonalEdgeStyle;rounded=1;orthogonalLoop=1;jettySize=auto;html=1;entryX=0;entryY=0.5;entryDx=0;entryDy=0;strokeColor=#23445D;fontColor=default;exitX=0.5;exitY=0;exitDx=0;exitDy=0;endArrow=ERmandOne;endFill=0;curved=1;labelBackgroundColor=none;" edge="1" parent="1" source="rwyffnUm-1UJarJ4zW3v-16" target="98ZaGtcyYQJ2RkKQWjMi-4">
          <mxGeometry relative="1" as="geometry" />
        </mxCell>
        <mxCell id="rwyffnUm-1UJarJ4zW3v-22" style="edgeStyle=orthogonalEdgeStyle;rounded=1;orthogonalLoop=1;jettySize=auto;html=1;strokeColor=#23445D;fontColor=default;endArrow=ERmany;endFill=0;labelBackgroundColor=none;" edge="1" parent="1" source="rwyffnUm-1UJarJ4zW3v-16" target="98ZaGtcyYQJ2RkKQWjMi-6">
          <mxGeometry relative="1" as="geometry" />
        </mxCell>
        <mxCell id="rwyffnUm-1UJarJ4zW3v-16" value="Books" style="shape=rhombus;perimeter=rhombusPerimeter;whiteSpace=wrap;html=1;align=center;strokeColor=#6F0000;fontColor=#ffffff;fillColor=#a20025;labelBackgroundColor=none;rounded=1;" vertex="1" parent="1">
          <mxGeometry x="582" y="670" width="120" height="60" as="geometry" />
        </mxCell>
        <mxCell id="rwyffnUm-1UJarJ4zW3v-27" style="edgeStyle=orthogonalEdgeStyle;rounded=1;orthogonalLoop=1;jettySize=auto;html=1;entryX=0.5;entryY=1;entryDx=0;entryDy=0;strokeColor=#23445D;fontColor=default;endArrow=ERmandOne;endFill=0;labelBackgroundColor=none;" edge="1" parent="1" source="rwyffnUm-1UJarJ4zW3v-25" target="98ZaGtcyYQJ2RkKQWjMi-5">
          <mxGeometry relative="1" as="geometry" />
        </mxCell>
        <mxCell id="rwyffnUm-1UJarJ4zW3v-25" value="is Rated by" style="shape=rhombus;perimeter=rhombusPerimeter;whiteSpace=wrap;html=1;align=center;strokeColor=#6F0000;fontColor=#ffffff;fillColor=#a20025;labelBackgroundColor=none;rounded=1;" vertex="1" parent="1">
          <mxGeometry x="1070" y="857.5" width="120" height="60" as="geometry" />
        </mxCell>
        <mxCell id="rwyffnUm-1UJarJ4zW3v-28" style="edgeStyle=orthogonalEdgeStyle;rounded=1;orthogonalLoop=1;jettySize=auto;html=1;entryX=0.5;entryY=0;entryDx=0;entryDy=0;strokeColor=#23445D;fontColor=default;endArrow=ERmany;endFill=0;curved=1;labelBackgroundColor=none;" edge="1" parent="1" source="rwyffnUm-1UJarJ4zW3v-25" target="98ZaGtcyYQJ2RkKQWjMi-7">
          <mxGeometry relative="1" as="geometry" />
        </mxCell>
        <mxCell id="rwyffnUm-1UJarJ4zW3v-30" style="edgeStyle=orthogonalEdgeStyle;rounded=1;orthogonalLoop=1;jettySize=auto;html=1;entryX=1;entryY=0.5;entryDx=0;entryDy=0;strokeColor=#23445D;fontColor=default;curved=1;exitX=0.5;exitY=0;exitDx=0;exitDy=0;labelBackgroundColor=none;endArrow=ERmandOne;endFill=0;" edge="1" parent="1" source="rwyffnUm-1UJarJ4zW3v-29" target="98ZaGtcyYQJ2RkKQWjMi-4">
          <mxGeometry relative="1" as="geometry" />
        </mxCell>
        <mxCell id="rwyffnUm-1UJarJ4zW3v-31" style="edgeStyle=orthogonalEdgeStyle;rounded=1;orthogonalLoop=1;jettySize=auto;html=1;entryX=0;entryY=0.25;entryDx=0;entryDy=0;strokeColor=#23445D;fontColor=default;endArrow=ERmany;endFill=0;labelBackgroundColor=none;curved=1;exitX=0.5;exitY=1;exitDx=0;exitDy=0;" edge="1" parent="1" source="rwyffnUm-1UJarJ4zW3v-29" target="98ZaGtcyYQJ2RkKQWjMi-7">
          <mxGeometry relative="1" as="geometry" />
        </mxCell>
        <mxCell id="rwyffnUm-1UJarJ4zW3v-29" value="Rates" style="shape=rhombus;perimeter=rhombusPerimeter;whiteSpace=wrap;html=1;align=center;strokeColor=#6F0000;fillColor=#a20025;fontColor=#ffffff;labelBackgroundColor=none;rounded=1;" vertex="1" parent="1">
          <mxGeometry x="850" y="750" width="120" height="60" as="geometry" />
        </mxCell>
        <mxCell id="rwyffnUm-1UJarJ4zW3v-33" style="edgeStyle=orthogonalEdgeStyle;rounded=1;orthogonalLoop=1;jettySize=auto;html=1;strokeColor=#23445D;fontColor=default;endArrow=ERmandOne;endFill=0;labelBackgroundColor=none;" edge="1" parent="1" source="rwyffnUm-1UJarJ4zW3v-32" target="98ZaGtcyYQJ2RkKQWjMi-6">
          <mxGeometry relative="1" as="geometry" />
        </mxCell>
        <mxCell id="rwyffnUm-1UJarJ4zW3v-34" style="edgeStyle=orthogonalEdgeStyle;rounded=1;orthogonalLoop=1;jettySize=auto;html=1;strokeColor=#23445D;fontColor=default;endArrow=ERmany;endFill=0;labelBackgroundColor=none;" edge="1" parent="1" source="rwyffnUm-1UJarJ4zW3v-32" target="98ZaGtcyYQJ2RkKQWjMi-8">
          <mxGeometry relative="1" as="geometry" />
        </mxCell>
        <mxCell id="rwyffnUm-1UJarJ4zW3v-32" value="Relationship" style="shape=rhombus;perimeter=rhombusPerimeter;whiteSpace=wrap;html=1;align=center;strokeColor=#6F0000;fontColor=#ffffff;fillColor=#a20025;labelBackgroundColor=none;rounded=1;" vertex="1" parent="1">
          <mxGeometry x="570" y="1020" width="120" height="60" as="geometry" />
        </mxCell>
        <mxCell id="rwyffnUm-1UJarJ4zW3v-36" style="edgeStyle=orthogonalEdgeStyle;rounded=1;orthogonalLoop=1;jettySize=auto;html=1;entryX=0;entryY=0.5;entryDx=0;entryDy=0;curved=1;endArrow=ERmandOne;endFill=0;" edge="1" parent="1" source="rwyffnUm-1UJarJ4zW3v-35" target="98ZaGtcyYQJ2RkKQWjMi-5">
          <mxGeometry relative="1" as="geometry" />
        </mxCell>
        <mxCell id="rwyffnUm-1UJarJ4zW3v-38" style="edgeStyle=orthogonalEdgeStyle;rounded=1;orthogonalLoop=1;jettySize=auto;html=1;entryX=1;entryY=0.5;entryDx=0;entryDy=0;curved=1;endArrow=ERmany;endFill=0;" edge="1" parent="1" source="rwyffnUm-1UJarJ4zW3v-35" target="98ZaGtcyYQJ2RkKQWjMi-6">
          <mxGeometry relative="1" as="geometry" />
        </mxCell>
        <mxCell id="rwyffnUm-1UJarJ4zW3v-35" value="is booked in&amp;nbsp;" style="shape=rhombus;perimeter=rhombusPerimeter;whiteSpace=wrap;html=1;align=center;fillColor=#a20025;fontColor=#ffffff;strokeColor=#6F0000;rounded=1;" vertex="1" parent="1">
          <mxGeometry x="770" y="660" width="120" height="60" as="geometry" />
        </mxCell>
        <mxCell id="rwyffnUm-1UJarJ4zW3v-39" value="CompanyID" style="ellipse;whiteSpace=wrap;html=1;align=center;rounded=1;fillColor=#008a00;fontColor=#ffffff;strokeColor=#005700;" vertex="1" parent="1">
          <mxGeometry x="1100" y="240" width="100" height="40" as="geometry" />
        </mxCell>
        <mxCell id="rwyffnUm-1UJarJ4zW3v-40" style="edgeStyle=entityRelationEdgeStyle;rounded=1;orthogonalLoop=1;jettySize=auto;html=1;entryX=0.767;entryY=0.938;entryDx=0;entryDy=0;entryPerimeter=0;exitX=0.38;exitY=-0.033;exitDx=0;exitDy=0;exitPerimeter=0;elbow=vertical;" edge="1" parent="1" source="98ZaGtcyYQJ2RkKQWjMi-3" target="rwyffnUm-1UJarJ4zW3v-39">
          <mxGeometry relative="1" as="geometry" />
        </mxCell>
        <mxCell id="rwyffnUm-1UJarJ4zW3v-41" value="UserID" style="ellipse;whiteSpace=wrap;html=1;align=center;rounded=1;fillColor=#008a00;fontColor=#ffffff;strokeColor=#005700;" vertex="1" parent="1">
          <mxGeometry x="1225" y="230" width="100" height="40" as="geometry" />
        </mxCell>
        <mxCell id="rwyffnUm-1UJarJ4zW3v-43" value="Company Name" style="ellipse;whiteSpace=wrap;html=1;align=center;rounded=1;fillColor=#008a00;fontColor=#ffffff;strokeColor=#005700;" vertex="1" parent="1">
          <mxGeometry x="1350" y="240" width="100" height="40" as="geometry" />
        </mxCell>
        <mxCell id="rwyffnUm-1UJarJ4zW3v-45" value="Address" style="ellipse;whiteSpace=wrap;html=1;align=center;rounded=1;fillColor=#008a00;fontColor=#ffffff;strokeColor=#005700;" vertex="1" parent="1">
          <mxGeometry x="1420" y="330" width="100" height="40" as="geometry" />
        </mxCell>
        <mxCell id="rwyffnUm-1UJarJ4zW3v-47" value="Phone Number" style="ellipse;whiteSpace=wrap;html=1;align=center;rounded=1;fillColor=#008a00;fontColor=#ffffff;strokeColor=#005700;" vertex="1" parent="1">
          <mxGeometry x="1390" y="405" width="100" height="40" as="geometry" />
        </mxCell>
        <mxCell id="rwyffnUm-1UJarJ4zW3v-50" value="ClientID" style="ellipse;whiteSpace=wrap;html=1;align=center;rounded=1;fillColor=#008a00;fontColor=#ffffff;strokeColor=#005700;" vertex="1" parent="1">
          <mxGeometry x="610" y="445" width="100" height="40" as="geometry" />
        </mxCell>
        <mxCell id="rwyffnUm-1UJarJ4zW3v-52" value="UserID" style="ellipse;whiteSpace=wrap;html=1;align=center;rounded=1;fillColor=#008a00;fontColor=#ffffff;strokeColor=#005700;" vertex="1" parent="1">
          <mxGeometry x="530" y="540" width="100" height="40" as="geometry" />
        </mxCell>
        <mxCell id="rwyffnUm-1UJarJ4zW3v-55" value="First Name" style="ellipse;whiteSpace=wrap;html=1;align=center;rounded=1;fillColor=#008a00;fontColor=#ffffff;strokeColor=#005700;" vertex="1" parent="1">
          <mxGeometry x="780" y="430" width="100" height="40" as="geometry" />
        </mxCell>
        <mxCell id="rwyffnUm-1UJarJ4zW3v-57" value="Last Name" style="ellipse;whiteSpace=wrap;html=1;align=center;rounded=1;fillColor=#008a00;fontColor=#ffffff;strokeColor=#005700;" vertex="1" parent="1">
          <mxGeometry x="930" y="440" width="100" height="40" as="geometry" />
        </mxCell>
        <mxCell id="rwyffnUm-1UJarJ4zW3v-59" value="Phone Number" style="ellipse;whiteSpace=wrap;html=1;align=center;rounded=1;fillColor=#008a00;fontColor=#ffffff;strokeColor=#005700;" vertex="1" parent="1">
          <mxGeometry x="930" y="520" width="100" height="40" as="geometry" />
        </mxCell>
        <mxCell id="rwyffnUm-1UJarJ4zW3v-61" value="Service AD ID" style="ellipse;whiteSpace=wrap;html=1;align=center;rounded=1;fillColor=#008a00;fontColor=#ffffff;strokeColor=#005700;" vertex="1" parent="1">
          <mxGeometry x="960" y="630" width="100" height="40" as="geometry" />
        </mxCell>
        <mxCell id="rwyffnUm-1UJarJ4zW3v-63" value="CompanyID" style="ellipse;whiteSpace=wrap;html=1;align=center;rounded=1;fillColor=#008a00;fontColor=#ffffff;strokeColor=#005700;" vertex="1" parent="1">
          <mxGeometry x="1021" y="575" width="100" height="40" as="geometry" />
        </mxCell>
        <mxCell id="rwyffnUm-1UJarJ4zW3v-65" value="Title" style="ellipse;whiteSpace=wrap;html=1;align=center;rounded=1;fillColor=#008a00;fontColor=#ffffff;strokeColor=#005700;" vertex="1" parent="1">
          <mxGeometry x="1140" y="575" width="100" height="40" as="geometry" />
        </mxCell>
        <mxCell id="rwyffnUm-1UJarJ4zW3v-68" value="Description" style="ellipse;whiteSpace=wrap;html=1;align=center;rounded=1;fillColor=#008a00;fontColor=#ffffff;strokeColor=#005700;" vertex="1" parent="1">
          <mxGeometry x="1310" y="600" width="100" height="40" as="geometry" />
        </mxCell>
        <mxCell id="rwyffnUm-1UJarJ4zW3v-70" value="Price" style="ellipse;whiteSpace=wrap;html=1;align=center;rounded=1;fillColor=#008a00;fontColor=#ffffff;strokeColor=#005700;" vertex="1" parent="1">
          <mxGeometry x="1310" y="690" width="100" height="40" as="geometry" />
        </mxCell>
        <mxCell id="rwyffnUm-1UJarJ4zW3v-72" value="Posted Date" style="ellipse;whiteSpace=wrap;html=1;align=center;rounded=1;fillColor=#008a00;fontColor=#ffffff;strokeColor=#005700;" vertex="1" parent="1">
          <mxGeometry x="1250" y="770" width="100" height="40" as="geometry" />
        </mxCell>
        <mxCell id="rwyffnUm-1UJarJ4zW3v-8" value="Posts" style="shape=rhombus;perimeter=rhombusPerimeter;whiteSpace=wrap;html=1;align=center;strokeColor=#6F0000;fontColor=#ffffff;fillColor=#a20025;labelBackgroundColor=none;rounded=1;" vertex="1" parent="1">
          <mxGeometry x="1215" y="500" width="120" height="60" as="geometry" />
        </mxCell>
        <mxCell id="rwyffnUm-1UJarJ4zW3v-76" value="BookingID" style="ellipse;whiteSpace=wrap;html=1;align=center;rounded=1;fillColor=#008a00;fontColor=#ffffff;strokeColor=#005700;" vertex="1" parent="1">
          <mxGeometry x="380" y="707.5" width="100" height="40" as="geometry" />
        </mxCell>
        <mxCell id="rwyffnUm-1UJarJ4zW3v-78" value="ClientID" style="ellipse;whiteSpace=wrap;html=1;align=center;rounded=1;fillColor=#008a00;fontColor=#ffffff;strokeColor=#005700;" vertex="1" parent="1">
          <mxGeometry x="375" y="810" width="100" height="40" as="geometry" />
        </mxCell>
        <mxCell id="rwyffnUm-1UJarJ4zW3v-80" value="Service AD ID" style="ellipse;whiteSpace=wrap;html=1;align=center;rounded=1;fillColor=#008a00;fontColor=#ffffff;strokeColor=#005700;" vertex="1" parent="1">
          <mxGeometry x="375" y="900" width="100" height="40" as="geometry" />
        </mxCell>
        <mxCell id="rwyffnUm-1UJarJ4zW3v-82" value="Booking Date" style="ellipse;whiteSpace=wrap;html=1;align=center;rounded=1;fillColor=#008a00;fontColor=#ffffff;strokeColor=#005700;" vertex="1" parent="1">
          <mxGeometry x="375" y="997.5" width="100" height="40" as="geometry" />
        </mxCell>
        <mxCell id="rwyffnUm-1UJarJ4zW3v-86" value="Status" style="ellipse;whiteSpace=wrap;html=1;align=center;rounded=1;fillColor=#008a00;fontColor=#ffffff;strokeColor=#005700;" vertex="1" parent="1">
          <mxGeometry x="760" y="850" width="100" height="40" as="geometry" />
        </mxCell>
        <mxCell id="rwyffnUm-1UJarJ4zW3v-87" style="edgeStyle=orthogonalEdgeStyle;rounded=1;orthogonalLoop=1;jettySize=auto;html=1;exitX=1;exitY=0.75;exitDx=0;exitDy=0;entryX=0;entryY=0.5;entryDx=0;entryDy=0;curved=1;" edge="1" parent="1" source="98ZaGtcyYQJ2RkKQWjMi-6" target="rwyffnUm-1UJarJ4zW3v-86">
          <mxGeometry relative="1" as="geometry">
            <mxPoint x="760" y="920" as="targetPoint" />
          </mxGeometry>
        </mxCell>
        <mxCell id="rwyffnUm-1UJarJ4zW3v-88" value="RatingID" style="ellipse;whiteSpace=wrap;html=1;align=center;rounded=1;fillColor=#008a00;fontColor=#ffffff;strokeColor=#005700;" vertex="1" parent="1">
          <mxGeometry x="770" y="970" width="100" height="40" as="geometry" />
        </mxCell>
        <mxCell id="rwyffnUm-1UJarJ4zW3v-91" value="Service AD ID" style="ellipse;whiteSpace=wrap;html=1;align=center;rounded=1;fillColor=#008a00;fontColor=#ffffff;strokeColor=#005700;" vertex="1" parent="1">
          <mxGeometry x="820" y="1130" width="100" height="40" as="geometry" />
        </mxCell>
        <mxCell id="rwyffnUm-1UJarJ4zW3v-94" value="ClientID" style="ellipse;whiteSpace=wrap;html=1;align=center;rounded=1;fillColor=#008a00;fontColor=#ffffff;strokeColor=#005700;" vertex="1" parent="1">
          <mxGeometry x="950" y="1170" width="100" height="40" as="geometry" />
        </mxCell>
        <mxCell id="rwyffnUm-1UJarJ4zW3v-96" value="RatingValue" style="ellipse;whiteSpace=wrap;html=1;align=center;rounded=1;fillColor=#008a00;fontColor=#ffffff;strokeColor=#005700;" vertex="1" parent="1">
          <mxGeometry x="1080" y="1180" width="100" height="40" as="geometry" />
        </mxCell>
        <mxCell id="rwyffnUm-1UJarJ4zW3v-98" value="Comment" style="ellipse;whiteSpace=wrap;html=1;align=center;rounded=1;fillColor=#008a00;fontColor=#ffffff;strokeColor=#005700;" vertex="1" parent="1">
          <mxGeometry x="1200" y="1140" width="100" height="40" as="geometry" />
        </mxCell>
        <mxCell id="rwyffnUm-1UJarJ4zW3v-100" value="RatingDate" style="ellipse;whiteSpace=wrap;html=1;align=center;rounded=1;fillColor=#008a00;fontColor=#ffffff;strokeColor=#005700;" vertex="1" parent="1">
          <mxGeometry x="1230" y="980" width="100" height="40" as="geometry" />
        </mxCell>
        <mxCell id="rwyffnUm-1UJarJ4zW3v-102" value="PaymentID" style="ellipse;whiteSpace=wrap;html=1;align=center;rounded=1;fillColor=#008a00;fontColor=#ffffff;strokeColor=#005700;" vertex="1" parent="1">
          <mxGeometry x="360" y="1130" width="100" height="40" as="geometry" />
        </mxCell>
        <mxCell id="rwyffnUm-1UJarJ4zW3v-104" value="PaymentDate" style="ellipse;whiteSpace=wrap;html=1;align=center;rounded=1;fillColor=#008a00;fontColor=#ffffff;strokeColor=#005700;" vertex="1" parent="1">
          <mxGeometry x="490" y="1360" width="100" height="40" as="geometry" />
        </mxCell>
        <mxCell id="rwyffnUm-1UJarJ4zW3v-105" value="BookingID" style="ellipse;whiteSpace=wrap;html=1;align=center;rounded=1;fillColor=#008a00;fontColor=#ffffff;strokeColor=#005700;" vertex="1" parent="1">
          <mxGeometry x="350" y="1270" width="100" height="40" as="geometry" />
        </mxCell>
        <mxCell id="rwyffnUm-1UJarJ4zW3v-106" value="PaymentMethod" style="ellipse;whiteSpace=wrap;html=1;align=center;rounded=1;fillColor=#008a00;fontColor=#ffffff;strokeColor=#005700;" vertex="1" parent="1">
          <mxGeometry x="740" y="1200" width="100" height="40" as="geometry" />
        </mxCell>
        <mxCell id="rwyffnUm-1UJarJ4zW3v-107" value="Amount" style="ellipse;whiteSpace=wrap;html=1;align=center;rounded=1;fillColor=#008a00;fontColor=#ffffff;strokeColor=#005700;" vertex="1" parent="1">
          <mxGeometry x="710" y="1350" width="100" height="40" as="geometry" />
        </mxCell>
      </root>
    </mxGraphModel>
  </diagram>
</mxfile>
